<svg xmlns="http://www.w3.org/2000/svg" xmlns:xlink="http://www.w3.org/1999/xlink" viewBox="0 0 236 64" width="236" height="64" role="img" aria-label="Portfolio: view my work"><title>Portfolio: view my work</title><style><![CDATA[.mono{font-family:ui-monospace,'SF Mono','Cascadia Code','JetBrains Mono',Menlo,Consolas,'DejaVu Sans Mono',monospace}.sans{font-family:'Segoe UI',-apple-system,BlinkMacSystemFont,'Helvetica Neue',Roboto,Arial,sans-serif}@keyframes shine{0%{transform:translateX(0)}30%,100%{transform:translateX(396px)}}.shine{animation:shine 6s ease-in-out 0.00s infinite}]]></style><defs><clipPath id="card"><rect width="236" height="64" rx="16"/></clipPath><linearGradient id="ig" x1="0" y1="1" x2="1" y2="0"><stop offset="0" stop-color="#FEDA75"/><stop offset=".3" stop-color="#FA7E1E"/><stop offset=".6" stop-color="#D62976"/><stop offset="1" stop-color="#4F5BD5"/></linearGradient><linearGradient id="edge" x1="0" x2="1"><stop offset="0.000" stop-color="#4285F4" stop-opacity=".7"/><stop offset="0.333" stop-color="#EA4335" stop-opacity=".7"/><stop offset="0.667" stop-color="#FBBC05" stop-opacity=".7"/><stop offset="1.000" stop-color="#34A853" stop-opacity=".7"/></linearGradient><linearGradient id="gloss" x1="0" x2="1"><stop offset="0" stop-color="#fff" stop-opacity="0"/><stop offset=".5" stop-color="#fff" stop-opacity=".09"/><stop offset="1" stop-color="#fff" stop-opacity="0"/></linearGradient></defs><g clip-path="url(#card)"><rect width="236" height="64" fill="#0D1117"/><rect class="shine" x="-150" width="110" height="64" fill="url(#gloss)" transform="skewX(-20)"/></g><rect x=".75" y=".75" width="234.5" height="62.5" rx="15.5" fill="none" stroke="#30363D" stroke-width="1.5"/><rect x="16" y="62.5" width="204" height="1.5" fill="url(#edge)"/><rect x="12" y="12" width="40" height="40" rx="11" fill="#FFD100"/><g transform="translate(20 20) scale(1)"><path fill="#0A0A09" fill-rule="evenodd" d="M5.25 19.5L10.125 4.5H13.875L18.75 19.5H15.19L14.18 16.13H9.83L8.81 19.5ZM10.73 13.13H13.28L12 8.81Z"/></g><text class="mono" x="66" y="28" font-size="10.5" letter-spacing="2" fill="#8B949E">PORTFOLIO</text><text class="sans" x="66" y="47" font-size="16" font-weight="600" fill="#E6EDF3">view my work</text><path d="M203 37.0l10-10m-7 0h7v7" fill="none" stroke="#8B949E" stroke-width="1.8" stroke-linecap="round" stroke-linejoin="round"/></svg>
